# xmcd
#
# Track frame offsets: 
#        183
#        15005
#        30370
#        44918
#        57825
#        73173
#        87763
#        100233
#        116318
#        132893
#        145245
#        160098
#        172770
#        184068
#        198393
#        214163
#
# Disc length: 3005 seconds
#
# Revision: 1
# Processed by: cddbd v1.5.2PL0 Copyright (c) Steve Scherf et al.
# Submitted via: ExactAudioCopyFreeDBPlugin 1.0
#
DISCID=d00bbb10
DTITLE=Benny Goodman - The best of Benny Goodman
DYEAR=1987
DGENRE=Jazz
TTITLE0=Stomping at the Savoy
TTITLE1=My Melancholy Baby
TTITLE2=King Porter Stomp
TTITLE3=You Turned the Tables on me
TTITLE4=Moonglow
TTITLE5=Goodnight my Love
TTITLE6=Always
TTITLE7=Blue Skies
TTITLE8=Sometimes I'm happy
TTITLE9=The Devil and the Deep Blue Sea
TTITLE10=Down South Camp Meetin'
TTITLE11=Someday Sweetheart
TTITLE12=Yankee Doodle Never Went to Town
TTITLE13=When Buddha Smiles
TTITLE14=Japanese Sandman
TTITLE15=I'm Livin' in a Great Big Way
EXTD=YEAR: 1987
EXTT0=
EXTT1=
EXTT2=
EXTT3=
EXTT4=
EXTT5=
EXTT6=
EXTT7=
EXTT8=
EXTT9=
EXTT10=
EXTT11=
EXTT12=
EXTT13=
EXTT14=
EXTT15=
PLAYORDER=
